# xmcd
#
# Track frame offsets: 
#        150
#        12962
#        21460
#        30685
#        40622
#        55247
#        63760
#        75647
#        89860
#        102647
#        112772
#        123422
#        134935
#        149260
#        159535
#
# Disc length: 2280 seconds
#
# Revision: 3
# Processed by: cddbd v1.5.2PL0 Copyright (c) Steve Scherf et al.
# Submitted via: ExactAudioCopy v0.99pb4
#
DISCID=d008e60f
DTITLE=Various Artist - Country Juke Box Hits [CD 1]
DYEAR=2001
DGENRE=Country
TTITLE0=Lynn Anderson - Rose Garden
TTITLE1=Waylon Jennings - Abilene
TTITLE2=Frankie Laine - Rawhide
TTITLE3=Dave Dudley - Six Days On The Road
TTITLE4=Anne Murray - Both Sides Now
TTITLE5=Willie Nelson - Slow Down Old World
TTITLE6=Dolly Parton - Making Belive
TTITLE7=Ed Bruce - Behind Closed Doors
TTITLE8=Porter Wagoner - Satisfied Mind
TTITLE9=Faron Young - Hello Walls
TTITLE10=Billie Jo Spears - I'm So Lonesome I Could Cry
TTITLE11=Patsy Cline - Walking After Midnight
TTITLE12=Glen Campbell - Rhinestone Cowboy
TTITLE13=Johnny Paycheck - A.11
TTITLE14=Johnny Horton - All For The Love Of A Girl
EXTD=YEAR: 2001  ID3G:   2
EXTT0=
EXTT1=
EXTT2=
EXTT3=
EXTT4=
EXTT5=
EXTT6=
EXTT7=
EXTT8=
EXTT9=
EXTT10=
EXTT11=
EXTT12=
EXTT13=
EXTT14=
PLAYORDER=
